HIERARCHY
ROOT mixamorig1:Hips
{
	OFFSET -0.000023 99.754364 3.007850
	CHANNELS 6 Xposition Yposition Zposition Xrotation Yrotation Zrotation
	JOINT mixamorig1:Spine
	{
		OFFSET 0.000000 9.717224 -1.180211
		CHANNELS 3 Xrotation Yrotation Zrotation
		JOINT mixamorig1:Spine1
		{
			OFFSET 0.000000 11.336823 -1.376936
			CHANNELS 3 Xrotation Yrotation Zrotation
			JOINT mixamorig1:Spine2
			{
				OFFSET 0.000000 12.956345 -1.573657
				CHANNELS 3 Xrotation Yrotation Zrotation
				JOINT mixamorig1:Neck
				{
					OFFSET 0.000000 14.575974 -1.770441
					CHANNELS 3 Xrotation Yrotation Zrotation
					JOINT mixamorig1:Head
					{
						OFFSET 0.000000 6.720200 1.972157
						CHANNELS 3 Xrotation Yrotation Zrotation
						JOINT mixamorig1:HeadTop_End
						{
							OFFSET 0.000000 20.999847 6.162758
							CHANNELS 3 Xrotation Yrotation Zrotation
							End Site
							{
								OFFSET 0.000000 21.885452 -0.000004
							}
						}
					}
				}
				JOINT mixamorig1:LeftShoulder
				{
					OFFSET 6.140116 12.877853 -1.799548
					CHANNELS 3 Xrotation Yrotation Zrotation
					JOINT mixamorig1:LeftArm
					{
						OFFSET 12.545031 -3.431427 -0.058010
						CHANNELS 3 Xrotation Yrotation Zrotation
						JOINT mixamorig1:LeftForeArm
						{
							OFFSET 25.447281 -1.876373 -1.505625
							CHANNELS 3 Xrotation Yrotation Zrotation
							JOINT mixamorig1:LeftHand
							{
								OFFSET 23.367504 0.877640 0.971305
								CHANNELS 3 Xrotation Yrotation Zrotation
								JOINT mixamorig1:LeftHandThumb1
								{
									OFFSET 3.575478 -1.761887 3.039434
									CHANNELS 3 Xrotation Yrotation Zrotation
									JOINT mixamorig1:LeftHandThumb2
									{
										OFFSET 2.860405 -1.409454 2.431552
										CHANNELS 3 Xrotation Yrotation Zrotation
										JOINT mixamorig1:LeftHandThumb3
										{
											OFFSET 2.578941 -1.801514 1.750709
											CHANNELS 3 Xrotation Yrotation Zrotation
											JOINT mixamorig1:LeftHandThumb4
											{
												OFFSET 2.408989 -1.461151 1.064221
												CHANNELS 3 Xrotation Yrotation Zrotation
												End Site
												{
													OFFSET 2.176476 -1.503357 1.440013
												}
											}
										}
									}
								}
								JOINT mixamorig1:LeftHandIndex1
								{
									OFFSET 11.357018 -1.306473 4.439679
									CHANNELS 3 Xrotation Yrotation Zrotation
									JOINT mixamorig1:LeftHandIndex2
									{
										OFFSET 3.215240 -0.390930 0.624045
										CHANNELS 3 Xrotation Yrotation Zrotation
										JOINT mixamorig1:LeftHandIndex3
										{
											OFFSET 2.938980 -0.735489 0.560646
											CHANNELS 3 Xrotation Yrotation Zrotation
											JOINT mixamorig1:LeftHandIndex4
											{
												OFFSET 2.552437 -0.779205 0.483288
												CHANNELS 3 Xrotation Yrotation Zrotation
												End Site
												{
													OFFSET 2.555870 -0.777603 0.467434
												}
											}
										}
									}
								}
								JOINT mixamorig1:LeftHandMiddle1
								{
									OFFSET 12.195602 -0.657242 2.108765
									CHANNELS 3 Xrotation Yrotation Zrotation
									JOINT mixamorig1:LeftHandMiddle2
									{
										OFFSET 3.379944 -0.547394 0.236206
										CHANNELS 3 Xrotation Yrotation Zrotation
										JOINT mixamorig1:LeftHandMiddle3
										{
											OFFSET 3.043900 -0.829651 0.195068
											CHANNELS 3 Xrotation Yrotation Zrotation
											JOINT mixamorig1:LeftHandMiddle4
											{
												OFFSET 2.806625 -0.600723 0.188473
												CHANNELS 3 Xrotation Yrotation Zrotation
												End Site
												{
													OFFSET 2.806618 -0.600739 0.188510
												}
											}
										}
									}
								}
								JOINT mixamorig1:LeftHandRing1
								{
									OFFSET 12.563576 -0.458878 -0.154891
									CHANNELS 3 Xrotation Yrotation Zrotation
									JOINT mixamorig1:LeftHandRing2
									{
										OFFSET 2.596565 -0.829819 0.032336
										CHANNELS 3 Xrotation Yrotation Zrotation
										JOINT mixamorig1:LeftHandRing3
										{
											OFFSET 2.548286 -0.608398 0.044838
											CHANNELS 3 Xrotation Yrotation Zrotation
											JOINT mixamorig1:LeftHandRing4
											{
												OFFSET 2.167870 -0.507812 0.038965
												CHANNELS 3 Xrotation Yrotation Zrotation
												End Site
												{
													OFFSET 2.167732 -0.508163 0.042114
												}
											}
										}
									}
								}
								JOINT mixamorig1:LeftHandPinky1
								{
									OFFSET 11.341652 -0.310532 -2.253323
									CHANNELS 3 Xrotation Yrotation Zrotation
									JOINT mixamorig1:LeftHandPinky2
									{
										OFFSET 2.648827 -0.669128 -0.120024
										CHANNELS 3 Xrotation Yrotation Zrotation
										JOINT mixamorig1:LeftHandPinky3
										{
											OFFSET 2.075249 -0.703857 -0.105192
											CHANNELS 3 Xrotation Yrotation Zrotation
											JOINT mixamorig1:LeftHandPinky4
											{
												OFFSET 1.850784 -0.684036 -0.097376
												CHANNELS 3 Xrotation Yrotation Zrotation
												End Site
												{
													OFFSET 1.850731 -0.683411 -0.102854
												}
											}
										}
									}
								}
							}
						}
					}
				}
				JOINT mixamorig1:RightShoulder
				{
					OFFSET -6.140133 12.877823 -1.741391
					CHANNELS 3 Xrotation Yrotation Zrotation
					JOINT mixamorig1:RightArm
					{
						OFFSET -12.545002 -3.431366 0.058123
						CHANNELS 3 Xrotation Yrotation Zrotation
						JOINT mixamorig1:RightForeArm
						{
							OFFSET -25.447330 -1.876465 -1.671036
							CHANNELS 3 Xrotation Yrotation Zrotation
							JOINT mixamorig1:RightHand
							{
								OFFSET -23.367435 0.877640 0.912149
								CHANNELS 3 Xrotation Yrotation Zrotation
								JOINT mixamorig1:RightHandThumb1
								{
									OFFSET -3.655281 -1.787811 3.110017
									CHANNELS 3 Xrotation Yrotation Zrotation
									JOINT mixamorig1:RightHandThumb2
									{
										OFFSET -2.924309 -1.430252 2.488113
										CHANNELS 3 Xrotation Yrotation Zrotation
										JOINT mixamorig1:RightHandThumb3
										{
											OFFSET -2.528549 -1.776962 1.706924
											CHANNELS 3 Xrotation Yrotation Zrotation
											JOINT mixamorig1:RightHandThumb4
											{
												OFFSET -2.443375 -1.162323 1.073468
												CHANNELS 3 Xrotation Yrotation Zrotation
												End Site
												{
													OFFSET -2.204521 -1.202744 1.472025
												}
											}
										}
									}
								}
								JOINT mixamorig1:RightHandIndex1
								{
									OFFSET -11.888382 -1.247833 4.755188
									CHANNELS 3 Xrotation Yrotation Zrotation
									JOINT mixamorig1:RightHandIndex2
									{
										OFFSET -3.042244 -0.516434 0.442817
										CHANNELS 3 Xrotation Yrotation Zrotation
										JOINT mixamorig1:RightHandIndex3
										{
											OFFSET -2.738869 -0.708374 0.392164
											CHANNELS 3 Xrotation Yrotation Zrotation
											JOINT mixamorig1:RightHandIndex4
											{
												OFFSET -2.432571 -0.620773 0.348507
												CHANNELS 3 Xrotation Yrotation Zrotation
												End Site
												{
													OFFSET -2.433441 -0.620270 0.343348
												}
											}
										}
									}
								}
								JOINT mixamorig1:RightHandMiddle1
								{
									OFFSET -12.008347 -0.748550 2.098396
									CHANNELS 3 Xrotation Yrotation Zrotation
									JOINT mixamorig1:RightHandMiddle2
									{
										OFFSET -3.442291 -0.415817 0.287318
										CHANNELS 3 Xrotation Yrotation Zrotation
										JOINT mixamorig1:RightHandMiddle3
										{
											OFFSET -3.106178 -0.837677 0.240102
											CHANNELS 3 Xrotation Yrotation Zrotation
											JOINT mixamorig1:RightHandMiddle4
											{
												OFFSET -2.855728 -0.604996 0.227592
												CHANNELS 3 Xrotation Yrotation Zrotation
												End Site
												{
													OFFSET -2.855972 -0.604736 0.225131
												}
											}
										}
									}
								}
								JOINT mixamorig1:RightHandRing1
								{
									OFFSET -12.328026 -0.608994 -0.015787
									CHANNELS 3 Xrotation Yrotation Zrotation
									JOINT mixamorig1:RightHandRing2
									{
										OFFSET -2.763496 -0.569153 -0.029507
										CHANNELS 3 Xrotation Yrotation Zrotation
										JOINT mixamorig1:RightHandRing3
										{
											OFFSET -2.573975 -0.772354 -0.042469
											CHANNELS 3 Xrotation Yrotation Zrotation
											JOINT mixamorig1:RightHandRing4
											{
												OFFSET -2.323860 -0.456833 -0.023427
												CHANNELS 3 Xrotation Yrotation Zrotation
												End Site
												{
													OFFSET -2.323814 -0.457275 -0.019363
												}
											}
										}
									}
								}
								JOINT mixamorig1:RightHandPinky1
								{
									OFFSET -11.463135 -0.329407 -2.202621
									CHANNELS 3 Xrotation Yrotation Zrotation
									JOINT mixamorig1:RightHandPinky2
									{
										OFFSET -2.569016 -0.599854 -0.108848
										CHANNELS 3 Xrotation Yrotation Zrotation
										JOINT mixamorig1:RightHandPinky3
										{
											OFFSET -2.016190 -0.737000 -0.102787
											CHANNELS 3 Xrotation Yrotation Zrotation
											JOINT mixamorig1:RightHandPinky4
											{
												OFFSET -1.796242 -0.576553 -0.085258
												CHANNELS 3 Xrotation Yrotation Zrotation
												End Site
												{
													OFFSET -1.796211 -0.576279 -0.087722
												}
											}
										}
									}
								}
							}
						}
					}
				}
			}
		}
	}
	JOINT mixamorig1:LeftUpLeg
	{
		OFFSET 8.078197 -5.402374 -0.535866
		CHANNELS 3 Xrotation Yrotation Zrotation
		JOINT mixamorig1:LeftLeg
		{
			OFFSET 3.743073 -42.540520 -2.695453
			CHANNELS 3 Xrotation Yrotation Zrotation
			JOINT mixamorig1:LeftFoot
			{
				OFFSET 3.359008 -41.940849 -2.882240
				CHANNELS 3 Xrotation Yrotation Zrotation
				JOINT mixamorig1:LeftToeBase
				{
					OFFSET 1.133368 -9.116436 13.321875
					CHANNELS 3 Xrotation Yrotation Zrotation
					JOINT mixamorig1:LeftToe_End
					{
						OFFSET 0.591574 -0.054443 6.177378
						CHANNELS 3 Xrotation Yrotation Zrotation
						End Site
						{
							OFFSET 0.591574 -0.054443 6.177376
						}
					}
				}
			}
		}
	}
	JOINT mixamorig1:RightUpLeg
	{
		OFFSET -8.078202 -5.402405 -0.751774
		CHANNELS 3 Xrotation Yrotation Zrotation
		JOINT mixamorig1:RightLeg
		{
			OFFSET -3.743069 -42.540482 -2.464511
			CHANNELS 3 Xrotation Yrotation Zrotation
			JOINT mixamorig1:RightFoot
			{
				OFFSET -3.359002 -41.940781 -2.968969
				CHANNELS 3 Xrotation Yrotation Zrotation
				JOINT mixamorig1:RightToeBase
				{
					OFFSET -1.133408 -9.116797 13.416489
					CHANNELS 3 Xrotation Yrotation Zrotation
					JOINT mixamorig1:RightToe_End
					{
						OFFSET -0.591589 -0.054615 6.151403
						CHANNELS 3 Xrotation Yrotation Zrotation
						End Site
						{
							OFFSET -0.591589 -0.054615 6.151402
						}
					}
				}
			}
		}
	}
}
MOTION
Frames: 5
Frame Time: 0.041667
39.342854 119.049812 60.978897 14.182611 -41.423117 27.526743 13.381630 -3.982741 -8.937912 -0.000001 0.000002 -0.000002 -4.272310 -0.817001 4.027275 -0.232732 -2.823263 -10.475641 -13.259129 -3.594028 7.329534 -0.000003 0.000005 0.000000 -0.000002 0.000110 -0.000014 21.463506 -41.247820 -78.562414 60.817705 -66.924871 99.212514 -26.513676 3.589990 0.846564 -0.000114 0.000057 -0.000278 -0.000175 -0.000408 0.000559 0.000004 0.000006 0.000016 -0.000009 0.000003 0.000006 -0.000015 -0.000167 -0.000063 5.369649 -1.148512 -7.697222 0.000003 0.000003 -0.000002 -0.000001 0.000001 -0.000001 0.000025 0.000354 0.000117 0.958888 -0.151682 -2.905192 0.000003 -0.000001 -0.000003 0.000003 -0.000000 -0.000008 0.000004 -0.000229 -0.000170 0.715877 -0.155013 -10.277568 0.000001 -0.000001 -0.000003 0.000000 -0.000004 -0.000004 0.000173 0.000133 0.000141 -0.725234 0.237421 -2.222183 -0.000006 -0.000000 -0.000004 0.000003 -0.000008 0.000003 0.000023 -0.000099 -0.000083 28.001506 38.823953 72.956351 90.030014 62.728259 -133.304583 -4.708002 -0.661356 -0.027187 -0.000020 0.000008 0.000175 0.000196 0.000023 -0.000354 0.000007 -0.000000 -0.000016 -0.000000 -0.000013 0.000003 -0.000033 -0.000167 0.000284 5.369857 1.148985 7.696549 0.000004 -0.000000 0.000001 -0.000002 0.000001 0.000000 -0.000102 -0.000097 0.000120 0.958783 0.152192 2.905040 0.000001 0.000001 0.000013 -0.000002 0.000005 0.000002 0.000034 0.000315 -0.000115 0.715612 0.155545 10.277782 -0.000004 -0.000003 -0.000002 0.000003 0.000008 0.000003 -0.000057 0.000046 -0.000190 -0.724782 -0.237280 2.221637 -0.000004 0.000001 -0.000012 0.000004 -0.000000 0.000001 -7.083178 4.692620 -4.866976 58.446113 -0.364406 0.564717 18.904700 4.594833 -0.561786 -0.000003 0.000001 0.000004 -0.000004 0.000004 0.000004 -43.059189 -7.858507 4.253678 35.563624 -0.475597 -0.298976 7.745550 3.261750 -0.621422 -0.000001 -0.000006 0.000004 0.000007 0.000009 -0.000002 
30.116552 116.469276 77.549171 12.517273 -41.928322 24.335471 13.874857 -1.589111 -5.664976 -0.000002 -0.000001 -0.000002 -4.590895 -0.208523 3.560566 -0.271250 -3.755046 -11.260992 -11.148986 -5.189497 8.333990 0.000003 -0.000004 -0.000004 0.000006 0.000097 -0.000016 25.621681 -36.521872 -78.434607 52.052281 -66.691258 89.159855 -26.017574 3.528645 0.815267 -0.000114 0.000066 -0.000294 -0.000179 -0.000408 0.000550 -0.000002 -0.000007 0.000008 -0.000014 -0.000000 -0.000005 -0.000012 -0.000170 -0.000076 5.369655 -1.148509 -7.697216 -0.000008 0.000000 -0.000003 -0.000008 -0.000006 -0.000009 0.000019 0.000354 0.000106 0.958897 -0.151682 -2.905192 -0.000000 -0.000003 -0.000003 0.000005 -0.000003 -0.000002 0.000000 -0.000232 -0.000180 0.715876 -0.155015 -10.277576 0.000003 -0.000004 0.000007 -0.000003 -0.000001 0.000008 0.000165 0.000142 0.000134 -0.725241 0.237410 -2.222176 0.000007 0.000010 -0.000000 0.000008 0.000001 0.000004 0.000026 -0.000101 -0.000074 23.766429 39.299802 72.016688 86.551249 63.753641 -129.104058 -6.480791 -0.908884 -0.051559 -0.000024 0.000004 0.000175 0.000206 0.000009 -0.000366 0.000020 0.000000 -0.000007 -0.000007 -0.000006 0.000012 -0.000038 -0.000163 0.000299 5.369854 1.148981 7.696558 0.000001 0.000006 -0.000000 0.000001 -0.000003 -0.000005 -0.000104 -0.000100 0.000130 0.958785 0.152181 2.905035 0.000003 -0.000004 0.000003 -0.000003 -0.000002 -0.000001 0.000038 0.000311 -0.000103 0.715610 0.155548 10.277778 -0.000000 -0.000003 -0.000004 -0.000000 0.000006 0.000003 -0.000061 0.000047 -0.000180 -0.724783 -0.237284 2.221665 0.000001 0.000003 -0.000005 -0.000003 -0.000001 -0.000001 -16.827629 5.527320 3.061889 71.250143 -0.332757 0.763605 14.232794 3.320367 0.013779 0.000002 -0.000003 0.000001 0.000000 -0.000001 0.000007 -36.166432 -5.178705 7.426343 42.532479 -0.248654 -0.354377 -5.090635 -4.243751 -1.177221 0.000001 0.000003 -0.000000 0.000001 0.000001 -0.000001 
20.145508 114.114876 93.564346 10.946980 -42.216815 18.738407 14.468296 0.230771 -0.716064 0.000004 -0.000003 -0.000004 -4.612977 0.144076 3.008725 -1.213705 -3.931181 -11.548854 -10.626801 -5.553921 7.623989 0.000000 0.000005 0.000002 -0.000002 0.000105 -0.000007 29.079428 -31.404213 -79.369237 47.062452 -66.274685 83.406814 -22.728452 3.108217 0.624967 -0.000108 0.000050 -0.000279 -0.000182 -0.000397 0.000564 0.000017 0.000006 0.000016 -0.000006 -0.000012 -0.000013 -0.000019 -0.000170 -0.000074 5.369661 -1.148513 -7.697217 -0.000000 0.000001 0.000001 -0.000001 0.000014 -0.000005 0.000024 0.000356 0.000124 0.958887 -0.151667 -2.905194 -0.000007 -0.000005 0.000006 0.000003 -0.000005 -0.000001 0.000004 -0.000226 -0.000170 0.715875 -0.155021 -10.277564 0.000004 -0.000003 -0.000005 -0.000007 0.000000 0.000003 0.000175 0.000143 0.000143 -0.725236 0.237421 -2.222194 -0.000005 -0.000005 -0.000003 0.000001 -0.000004 0.000007 0.000020 -0.000097 -0.000073 20.039106 41.955960 69.344431 89.067757 63.035577 -132.137782 -6.770942 -0.949369 -0.056380 -0.000027 -0.000002 0.000154 0.000201 0.000018 -0.000366 0.000015 0.000000 -0.000003 -0.000003 -0.000014 -0.000002 -0.000039 -0.000167 0.000285 5.369852 1.148986 7.696558 -0.000000 0.000002 0.000000 0.000005 -0.000001 -0.000005 -0.000101 -0.000104 0.000113 0.958788 0.152184 2.905028 0.000002 0.000001 0.000005 0.000004 -0.000001 -0.000003 0.000033 0.000311 -0.000125 0.715606 0.155553 10.277787 -0.000003 -0.000001 -0.000001 0.000007 0.000000 0.000008 -0.000063 0.000045 -0.000187 -0.724787 -0.237280 2.221658 0.000001 0.000004 -0.000003 -0.000001 0.000004 0.000008 -28.275614 2.352785 10.579876 79.150288 -0.374679 0.887167 8.261664 0.663874 0.422656 0.000006 -0.000006 0.000007 -0.000004 -0.000004 0.000013 -26.953115 -2.417424 10.834898 45.793341 0.239673 -0.339360 -15.247566 -10.734598 -4.277943 -0.000003 0.000006 -0.000008 -0.000003 0.000003 -0.000002 
10.251776 113.164734 109.264069 10.321361 -41.554840 16.080924 14.386525 2.385780 3.336477 0.000001 0.000000 -0.000000 -6.061959 0.501440 3.178822 -0.303341 -4.531179 -12.571617 -11.782853 -6.375374 7.819366 0.000002 0.000010 0.000000 0.000006 0.000107 -0.000010 33.392204 -29.368570 -79.516188 48.299536 -66.397922 84.838811 -23.555721 3.214858 0.670844 -0.000112 0.000054 -0.000276 -0.000180 -0.000395 0.000560 0.000013 0.000006 0.000006 -0.000019 0.000002 0.000003 -0.000018 -0.000171 -0.000065 5.369648 -1.148506 -7.697216 0.000008 0.000003 -0.000005 0.000013 -0.000003 0.000009 0.000012 0.000349 0.000130 0.958898 -0.151665 -2.905207 0.000005 0.000009 -0.000006 0.000002 0.000000 -0.000006 0.000004 -0.000224 -0.000177 0.715882 -0.155015 -10.277579 0.000004 0.000010 0.000001 0.000009 -0.000010 0.000007 0.000173 0.000139 0.000161 -0.725244 0.237415 -2.222176 0.000002 0.000015 0.000002 -0.000003 -0.000006 0.000012 0.000025 -0.000106 -0.000075 17.620339 44.666989 67.324191 96.872771 60.033907 -141.770644 -8.215388 -1.151075 -0.082594 -0.000016 0.000003 0.000167 0.000200 0.000016 -0.000367 0.000008 -0.000002 -0.000011 -0.000003 -0.000018 -0.000008 -0.000040 -0.000166 0.000298 5.369858 1.148986 7.696551 -0.000003 0.000000 -0.000004 0.000010 0.000000 -0.000005 -0.000102 -0.000099 0.000124 0.958789 0.152186 2.905042 0.000003 0.000001 -0.000002 -0.000004 -0.000001 0.000006 0.000034 0.000312 -0.000115 0.715611 0.155551 10.277777 -0.000004 0.000001 -0.000001 -0.000000 -0.000000 0.000001 -0.000063 0.000045 -0.000178 -0.724786 -0.237282 2.221645 0.000003 0.000000 -0.000000 0.000000 -0.000001 0.000014 -42.469269 -1.382355 16.228441 81.259956 -0.482601 0.911077 3.811172 1.456703 0.581072 -0.000003 0.000003 0.000010 -0.000011 -0.000007 0.000008 -17.308478 -0.434562 13.931180 43.195684 0.717675 -0.246577 -17.262040 -13.583333 -5.759632 -0.000003 0.000003 0.000002 -0.000000 0.000012 -0.000001 
-0.859684 114.649475 125.591568 9.829003 -39.833376 13.844706 12.638840 4.634041 5.533493 0.000003 0.000008 -0.000001 -6.255025 1.054418 2.217772 0.442296 -5.728682 -12.852755 -10.932584 -8.467138 8.179680 -0.000003 -0.000008 0.000003 0.000009 0.000101 -0.000018 37.372644 -30.210985 -77.488537 52.671448 -66.725791 89.872572 -25.097050 3.411539 0.759843 -0.000096 0.000055 -0.000288 -0.000178 -0.000390 0.000572 0.000018 0.000005 0.000008 -0.000003 0.000003 -0.000002 -0.000003 -0.000167 -0.000062 5.369647 -1.148515 -7.697220 -0.000005 -0.000018 -0.000004 0.000002 -0.000003 -0.000009 0.000018 0.000356 0.000123 0.958901 -0.151677 -2.905192 -0.000010 -0.000001 -0.000003 0.000009 -0.000006 0.000005 0.000005 -0.000222 -0.000175 0.715881 -0.155020 -10.277562 0.000002 0.000003 0.000002 -0.000006 -0.000004 0.000001 0.000179 0.000142 0.000142 -0.725249 0.237415 -2.222178 0.000003 -0.000004 -0.000001 0.000003 -0.000006 0.000014 0.000027 -0.000111 -0.000077 15.529888 44.936665 67.861870 103.846647 55.871658 -150.884725 -10.792064 -1.507803 -0.142744 -0.000023 -0.000011 0.000158 0.000206 0.000000 -0.000360 0.000013 0.000007 -0.000008 0.000003 -0.000022 0.000003 -0.000043 -0.000170 0.000292 5.369857 1.148981 7.696563 -0.000006 0.000004 0.000007 0.000008 -0.000002 -0.000003 -0.000101 -0.000107 0.000115 0.958782 0.152196 2.905040 0.000000 -0.000003 0.000008 -0.000003 0.000003 0.000001 0.000033 0.000305 -0.000116 0.715610 0.155547 10.277781 -0.000003 0.000000 -0.000006 0.000004 0.000003 -0.000005 -0.000065 0.000032 -0.000190 -0.724780 -0.237282 2.221656 0.000008 -0.000002 -0.000001 -0.000003 -0.000006 0.000002 -51.157471 -2.083546 15.581461 74.235598 -0.631645 0.785475 0.456367 4.709947 1.067286 0.000001 -0.000005 0.000003 0.000001 0.000005 0.000003 -5.266238 1.632893 13.572234 36.213581 1.000559 -0.117358 -11.773479 -10.427933 -3.513230 -0.000004 0.000001 0.000005 -0.000003 0.000001 -0.000005 
